<?xml version="1.0" encoding="utf-8"?>
<!-- Generator: Adobe Illustrator 24.3.0, SVG Export Plug-In . SVG Version: 6.00 Build 0)  -->
<svg version="1.1" id="Layer_1" xmlns="http://www.w3.org/2000/svg" xmlns:xlink="http://www.w3.org/1999/xlink" x="0px" y="0px"
	 viewBox="0 0 545.7 609.8" style="enable-background:new 0 0 545.7 609.8;" xml:space="preserve">
<style type="text/css">
	.st0{fill:#FFFFFF;stroke:#666699;stroke-width:5;stroke-miterlimit:10;}
	.st1{fill:none;stroke:#666699;stroke-width:5;stroke-miterlimit:10;}
	.st2{fill:none;stroke:#69618B;stroke-width:5;stroke-miterlimit:10;}
	.st3{fill:#69618C;stroke:#6A608B;stroke-width:5;stroke-miterlimit:10;}
	.st4{fill:none;}
	.st5{fill:#FFFFFF;}
	.st6{font-family:'Arial-Black';}
	.st7{font-size:23px;}
	.st8{font-size:18px;}
	.st9{fill:#CAC8E4;stroke:#000000;stroke-miterlimit:10;}
	.st10{font-family:'Ayuthaya';}
	.st11{font-size:11px;}
</style>
<g id="post-its">
	<rect x="5.5" y="4.9" class="st0" width="535.7" height="600"/>
	<line class="st1" x1="273.4" y1="4.9" x2="273.4" y2="604.9"/>
	<line class="st2" x1="5.5" y1="304.9" x2="541.2" y2="304.9"/>
	<circle class="st3" cx="273.4" cy="304.9" r="83.4"/>
	<rect x="192.8" y="264.7" class="st4" width="161.2" height="80.3"/>
	<text transform="matrix(1 0 0 1 218.1205 300.303)" class="st5 st6 st7">famished </text>
	<text transform="matrix(1 0 0 1 240.0005 327.903)" class="st5 st6 st7">fanny</text>
	<rect x="63.3" y="337" class="st4" width="134.9" height="42.3"/>
	<text transform="matrix(1 0 0 1 106.3003 360.3438)" class="st6 st8">says</text>
	<rect x="69.8" y="24.2" class="st4" width="134.9" height="42.3"/>
	<text transform="matrix(1 0 0 1 104.4459 52.5371)" class="st6 st8">thinks</text>
	<rect x="347.4" y="24.2" class="st4" width="134.9" height="42.3"/>
	<text transform="matrix(1 0 0 1 388.8353 52.5371)" class="st6 st8">feels</text>
	<rect x="347.4" y="337" class="st4" width="134.9" height="42.3"/>
	<text transform="matrix(1 0 0 1 389.3934 360.3438)" class="st6 st8">does</text>
	<rect x="44.7" y="84.7" class="st9" width="92.6" height="92.6"/>
	<rect x="394" y="91.7" class="st9" width="92.5" height="92.6"/>
	<rect x="399.9" y="194.8" class="st9" width="92.6" height="92.6"/>
	<rect x="31.5" y="471.5" class="st9" width="92.6" height="92.6"/>
	<rect x="421.6" y="388.3" class="st9" width="92.5" height="92.5"/>
	<rect x="108.4" y="394.1" class="st9" width="92.6" height="92.5"/>
	<rect x="347.7" y="477.9" class="st9" width="92.6" height="92.6"/>
	<rect x="289.1" y="75" class="st9" width="92.6" height="92.5"/>
	<rect x="146.5" y="121.3" class="st9" width="92.6" height="92.5"/>
	<rect x="44.7" y="194.9" class="st9" width="92.6" height="92.6"/>
	<rect x="154.6" y="492.4" class="st9" width="92.6" height="92.5"/>
	<rect x="300" y="394.1" class="st9" width="92.5" height="92.5"/>
</g>
<g id="notes">
	<rect x="31.5" y="471.5" class="st4" width="92.6" height="92.6"/>
	<text transform="matrix(1 0 0 1 34.9743 508.8673)" class="st10 st11">What do these </text>
	<text transform="matrix(1 0 0 1 31.6443 522.0673)" class="st10 st11">stupid buttons </text>
	<text transform="matrix(1 0 0 1 51.4443 535.2673)" class="st10 st11">even do?</text>
	<rect x="154.6" y="492.4" class="st4" width="92.6" height="92.5"/>
	<text transform="matrix(1 0 0 1 177.8927 516.5735)" class="st10 st11">I am so </text>
	<text transform="matrix(1 0 0 1 171.2627 529.7735)" class="st10 st11">hungry! I </text>
	<text transform="matrix(1 0 0 1 164.6927 542.9735)" class="st10 st11">need to eat </text>
	<text transform="matrix(1 0 0 1 171.2227 556.1735)" class="st10 st11">something </text>
	<text transform="matrix(1 0 0 1 167.9627 569.3735)" class="st10 st11">right now!</text>
	<rect x="107.2" y="394.1" class="st4" width="92.6" height="92.5"/>
	<text transform="matrix(1 0 0 1 127.1073 411.67)" class="st10 st11">Should I </text>
	<text transform="matrix(1 0 0 1 127.0773 424.87)" class="st10 st11">actually </text>
	<text transform="matrix(1 0 0 1 120.5073 438.07)" class="st10 st11">follow the </text>
	<text transform="matrix(1 0 0 1 113.8773 451.27)" class="st10 st11">instructions </text>
	<text transform="matrix(1 0 0 1 110.6373 464.47)" class="st10 st11">on this pizza </text>
	<text transform="matrix(1 0 0 1 120.5073 477.67)" class="st10 st11">rolls box?</text>
	<rect x="44.7" y="194.9" class="st4" width="92.6" height="92.6"/>
	<text transform="matrix(1 0 0 1 54.7695 225.7262)" class="st10 st11">When will I </text>
	<text transform="matrix(1 0 0 1 61.3395 238.9262)" class="st10 st11">ever need </text>
	<text transform="matrix(1 0 0 1 54.7395 252.1262)" class="st10 st11">these other </text>
	<text transform="matrix(1 0 0 1 64.5995 265.3262)" class="st10 st11">buttons?</text>
	<rect x="44.7" y="84.9" class="st4" width="92.6" height="92.6"/>
	<text transform="matrix(1 0 0 1 48.1694 109.1499)" class="st10 st11">I wonder what </text>
	<text transform="matrix(1 0 0 1 58.0694 122.3499)" class="st10 st11">I can make </text>
	<text transform="matrix(1 0 0 1 51.4394 135.5499)" class="st10 st11">from scratch </text>
	<text transform="matrix(1 0 0 1 71.2394 148.7499)" class="st10 st11">in the</text>
	<text transform="matrix(1 0 0 1 54.7394 161.9499)" class="st10 st11"> microwave.</text>
	<rect x="146.5" y="121.3" class="st4" width="92.6" height="92.5"/>
	<text transform="matrix(1 0 0 1 166.4424 145.4695)" class="st10 st11">How am I  </text>
	<text transform="matrix(1 0 0 1 156.5124 158.6695)" class="st10 st11">supposed to </text>
	<text transform="matrix(1 0 0 1 149.9424 171.8695)" class="st10 st11">know how many </text>
	<text transform="matrix(1 0 0 1 166.4124 185.0695)" class="st10 st11">watts my </text>
	<text transform="matrix(1 0 0 1 146.6124 198.2695)" class="st10 st11">microwave has?</text>
	<rect x="347.7" y="477.9" class="st4" width="92.6" height="92.6"/>
	<text transform="matrix(1 0 0 1 354.3821 502.0568)" class="st10 st11">Microwaves a </text>
	<text transform="matrix(1 0 0 1 351.0821 515.2568)" class="st10 st11">leftover bowl </text>
	<text transform="matrix(1 0 0 1 351.1521 528.4568)" class="st10 st11">of rice and a </text>
	<text transform="matrix(1 0 0 1 357.6821 541.6568)" class="st10 st11">frozen dish </text>
	<text transform="matrix(1 0 0 1 351.1521 554.8568)" class="st10 st11">one at a time</text>
	<rect x="300" y="394.1" class="st4" width="92.5" height="92.5"/>
	<text transform="matrix(1 0 0 1 306.6664 411.67)" class="st10 st11">Searches the </text>
	<text transform="matrix(1 0 0 1 323.1664 424.87)" class="st10 st11">web for </text>
	<text transform="matrix(1 0 0 1 309.9664 438.07)" class="st10 st11">recipes you </text>
	<text transform="matrix(1 0 0 1 303.3964 451.27)" class="st10 st11">can cook with </text>
	<text transform="matrix(1 0 0 1 326.4664 464.47)" class="st10 st11">only a </text>
	<text transform="matrix(1 0 0 1 316.5364 477.67)" class="st10 st11">microwave</text>
	<rect x="421.6" y="388.3" class="st4" width="92.5" height="92.5"/>
	<text transform="matrix(1 0 0 1 438.2431 405.9206)" class="st10 st11">Stops the </text>
	<text transform="matrix(1 0 0 1 438.2131 419.1206)" class="st10 st11">microwave </text>
	<text transform="matrix(1 0 0 1 428.3131 432.3206)" class="st10 st11">periodically </text>
	<text transform="matrix(1 0 0 1 431.6731 445.5206)" class="st10 st11">to check if </text>
	<text transform="matrix(1 0 0 1 421.7731 458.7206)" class="st10 st11">the food needs </text>
	<text transform="matrix(1 0 0 1 428.3431 471.9206)" class="st10 st11">more heating</text>
	<rect x="399.9" y="194.8" class="st4" width="92.6" height="92.6"/>
	<text transform="matrix(1 0 0 1 413.1891 212.3996)" class="st10 st11">Frustrated </text>
	<text transform="matrix(1 0 0 1 416.5191 225.5996)" class="st10 st11">about the </text>
	<text transform="matrix(1 0 0 1 409.9191 238.7996)" class="st10 st11">keypad with </text>
	<text transform="matrix(1 0 0 1 406.6191 251.9996)" class="st10 st11">buttons that </text>
	<text transform="matrix(1 0 0 1 409.9591 265.1996)" class="st10 st11">are hard to </text>
	<text transform="matrix(1 0 0 1 429.6891 278.3996)" class="st10 st11">press</text>
	<rect x="289.1" y="75" class="st4" width="92.6" height="92.5"/>
	<text transform="matrix(1 0 0 1 309.0224 105.7926)" class="st10 st11">Grateful </text>
	<text transform="matrix(1 0 0 1 312.3524 118.9926)" class="st10 st11">for the </text>
	<text transform="matrix(1 0 0 1 295.8524 132.1926)" class="st10 st11">invention of </text>
	<text transform="matrix(1 0 0 1 299.1224 145.3926)" class="st10 st11">HotPockets®</text>
	<rect x="394" y="90.8" class="st4" width="92.5" height="92.5"/>
	<text transform="matrix(1 0 0 1 410.5247 115.0657)" class="st10 st11">Inundated </text>
	<text transform="matrix(1 0 0 1 407.2947 128.2657)" class="st10 st11">by all the </text>
	<text transform="matrix(1 0 0 1 410.5247 141.4657)" class="st10 st11">different </text>
	<text transform="matrix(1 0 0 1 403.9547 154.6657)" class="st10 st11">buttons and </text>
	<text transform="matrix(1 0 0 1 420.4247 167.8657)" class="st10 st11">labels</text>
</g>
</svg>
