<?xml version="1.0" encoding="utf-8"?>
<!-- Generator: Adobe Illustrator 24.3.0, SVG Export Plug-In . SVG Version: 6.00 Build 0)  -->
<svg version="1.1" id="Layer_1" xmlns="http://www.w3.org/2000/svg" xmlns:xlink="http://www.w3.org/1999/xlink" x="0px" y="0px"
	 viewBox="0 0 545 609.7" style="enable-background:new 0 0 545 609.7;" xml:space="preserve">
<style type="text/css">
	.st0{fill:#FFFFFF;stroke:#666699;stroke-width:5;stroke-miterlimit:10;}
	.st1{fill:none;stroke:#666699;stroke-width:5;stroke-miterlimit:10;}
	.st2{fill:none;stroke:#69618B;stroke-width:5;stroke-miterlimit:10;}
	.st3{fill:#69618C;stroke:#6A608B;stroke-width:5;stroke-miterlimit:10;}
	.st4{fill:none;}
	.st5{fill:#FFFFFF;}
	.st6{font-family:'Arial-Black';}
	.st7{font-size:23px;}
	.st8{font-size:18px;}
	.st9{fill:#CAC8E4;stroke:#000000;stroke-miterlimit:10;}
	.st10{font-family:'Ayuthaya';}
	.st11{font-size:11px;}
</style>
<g id="frame">
	<rect x="4.7" y="4.8" class="st0" width="535.7" height="600"/>
	<line class="st1" x1="272.5" y1="4.8" x2="272.5" y2="604.8"/>
	<line class="st2" x1="4.7" y1="304.8" x2="540.4" y2="304.8"/>
</g>
<g id="name">
	<circle class="st3" cx="272.5" cy="304.8" r="83.4"/>
	<rect x="191.9" y="264.6" class="st4" width="161.2" height="80.3"/>
	<text transform="matrix(1 0 0 1 203.8802 300.4815)" class="st5 st6 st7">meticulous </text>
	<text transform="matrix(1 0 0 1 230.7266 327.8061)" class="st5 st6 st7">mandy</text>
</g>
<g id="labels">
	<rect x="62.5" y="336.9" class="st4" width="134.9" height="42.3"/>
	<text transform="matrix(1 0 0 1 105.4658 360.2469)" class="st6 st8">says</text>
	<rect x="69" y="24.1" class="st4" width="134.9" height="42.3"/>
	<text transform="matrix(1 0 0 1 103.6114 52.4402)" class="st6 st8">thinks</text>
	<rect x="346.6" y="24.1" class="st4" width="134.9" height="42.3"/>
	<text transform="matrix(1 0 0 1 388.0008 52.4402)" class="st6 st8">feels</text>
	<rect x="346.6" y="336.9" class="st4" width="134.9" height="42.3"/>
	<text transform="matrix(1 0 0 1 388.5589 360.2469)" class="st6 st8">does</text>
</g>
<g id="post-its">
	<rect x="26.4" y="84.6" class="st9" width="92.6" height="92.6"/>
	<rect x="423.7" y="74.9" class="st9" width="92.5" height="92.5"/>
	<rect x="361" y="177.4" class="st9" width="92.6" height="92.6"/>
	<rect x="26.4" y="379" class="st9" width="92.6" height="92.5"/>
	<rect x="403.4" y="492.3" class="st9" width="92.6" height="92.6"/>
	<rect x="142.8" y="411.3" class="st9" width="92.6" height="92.6"/>
	<rect x="299.1" y="408.1" class="st9" width="92.5" height="92.5"/>
	<rect x="423.7" y="380.6" class="st9" width="92.5" height="92.5"/>
	<rect x="303" y="97.6" class="st9" width="92.6" height="92.6"/>
	<rect x="165.2" y="74.9" class="st9" width="92.5" height="92.5"/>
	<rect x="99.4" y="158.7" class="st9" width="92.6" height="92.6"/>
	<rect x="72.6" y="485.1" class="st9" width="92.6" height="92.5"/>
</g>
<g id="notes">
	<rect x="26.4" y="84.8" class="st4" width="92.6" height="92.6"/>
	<text transform="matrix(1 0 0 1 46.2579 115.6531)" class="st10 st11">How long </text>
	<text transform="matrix(1 0 0 1 46.2579 128.8531)" class="st10 st11">should I </text>
	<text transform="matrix(1 0 0 1 36.3579 142.0531)" class="st10 st11">reheat this </text>
	<text transform="matrix(1 0 0 1 59.4279 155.2531)" class="st10 st11">for?</text>
	<rect x="165.2" y="74.9" class="st4" width="92.5" height="92.5"/>
	<text transform="matrix(1 0 0 1 171.9232 99.0956)" class="st10 st11">I wonder how </text>
	<text transform="matrix(1 0 0 1 181.7932 112.2956)" class="st10 st11">often you </text>
	<text transform="matrix(1 0 0 1 191.6532 125.4956)" class="st10 st11">should </text>
	<text transform="matrix(1 0 0 1 171.8932 138.6956)" class="st10 st11">replace your </text>
	<text transform="matrix(1 0 0 1 178.4532 151.8956)" class="st10 st11">microwave.</text>
	<rect x="99.4" y="158.7" class="st4" width="92.6" height="92.6"/>
	<text transform="matrix(1 0 0 1 102.8314 176.2715)" class="st10 st11">It’s been two </text>
	<text transform="matrix(1 0 0 1 106.1014 189.4715)" class="st10 st11">nights since </text>
	<text transform="matrix(1 0 0 1 102.8314 202.6715)" class="st10 st11">I cooked this </text>
	<text transform="matrix(1 0 0 1 106.1314 215.8715)" class="st10 st11">meal, I hope </text>
	<text transform="matrix(1 0 0 1 112.7014 229.0715)" class="st10 st11">it’s still </text>
	<text transform="matrix(1 0 0 1 129.1614 242.2715)" class="st10 st11">good!</text>
	<rect x="423.7" y="74.9" class="st4" width="92.5" height="92.5"/>
	<text transform="matrix(1 0 0 1 427.1045 99.0956)" class="st10 st11">Curious about </text>
	<text transform="matrix(1 0 0 1 427.1045 112.2956)" class="st10 st11">the functions </text>
	<text transform="matrix(1 0 0 1 450.2045 125.4956)" class="st10 st11">of the  </text>
	<text transform="matrix(1 0 0 1 433.7045 138.6956)" class="st10 st11">buttons she </text>
	<text transform="matrix(1 0 0 1 433.7045 151.8956)" class="st10 st11">seldom uses</text>
	<rect x="303" y="97.6" class="st4" width="92.6" height="92.6"/>
	<text transform="matrix(1 0 0 1 309.6332 128.4206)" class="st10 st11">Disheartened </text>
	<text transform="matrix(1 0 0 1 329.4632 141.6206)" class="st10 st11">by the </text>
	<text transform="matrix(1 0 0 1 312.9632 154.8206)" class="st10 st11">monotony of </text>
	<text transform="matrix(1 0 0 1 309.6632 168.0206)" class="st10 st11">her weekdays</text>
	<rect x="361" y="177.4" class="st4" width="92.6" height="92.6"/>
	<text transform="matrix(1 0 0 1 374.3459 208.207)" class="st10 st11">Annoyed at </text>
	<text transform="matrix(1 0 0 1 364.4759 221.407)" class="st10 st11">having to use </text>
	<text transform="matrix(1 0 0 1 364.4759 234.607)" class="st10 st11">both hands to </text>
	<text transform="matrix(1 0 0 1 364.4759 247.807)" class="st10 st11">open the door</text>
	<rect x="26.4" y="379" class="st4" width="92.6" height="92.5"/>
	<text transform="matrix(1 0 0 1 36.3921 403.2157)" class="st10 st11">Where did I </text>
	<text transform="matrix(1 0 0 1 49.5621 416.4157)" class="st10 st11">put the </text>
	<text transform="matrix(1 0 0 1 42.9221 429.6157)" class="st10 st11">microwave </text>
	<text transform="matrix(1 0 0 1 36.3621 442.8157)" class="st10 st11">cover plate </text>
	<text transform="matrix(1 0 0 1 39.6621 456.0157)" class="st10 st11">this time?</text>
	<rect x="72.6" y="485.1" class="st4" width="92.6" height="92.5"/>
	<text transform="matrix(1 0 0 1 76.069 509.3452)" class="st10 st11">Hmm, I should </text>
	<text transform="matrix(1 0 0 1 95.839 522.5452)" class="st10 st11">use the </text>
	<text transform="matrix(1 0 0 1 76.039 535.7452)" class="st10 st11">frozen dinner </text>
	<text transform="matrix(1 0 0 1 82.639 548.9452)" class="st10 st11">button next </text>
	<text transform="matrix(1 0 0 1 102.399 562.1452)" class="st10 st11">time.</text>
	<rect x="141.8" y="411.3" class="st4" width="92.6" height="92.6"/>
	<text transform="matrix(1 0 0 1 161.6684 435.4927)" class="st10 st11">Gross! I </text>
	<text transform="matrix(1 0 0 1 145.1684 448.6927)" class="st10 st11">should really </text>
	<text transform="matrix(1 0 0 1 158.3684 461.8927)" class="st10 st11">clean the </text>
	<text transform="matrix(1 0 0 1 158.3384 475.0927)" class="st10 st11">microwave </text>
	<text transform="matrix(1 0 0 1 171.5384 488.2927)" class="st10 st11">soon.</text>
	<rect x="299.1" y="408.1" class="st4" width="92.5" height="92.5"/>
	<text transform="matrix(1 0 0 1 302.5658 438.8845)" class="st10 st11">Presses the 2 </text>
	<text transform="matrix(1 0 0 1 299.2658 452.0845)" class="st10 st11">button to heat </text>
	<text transform="matrix(1 0 0 1 305.8658 465.2845)" class="st10 st11">food for two </text>
	<text transform="matrix(1 0 0 1 322.2958 478.4845)" class="st10 st11">minutes</text>
	<rect x="403.4" y="492.3" class="st4" width="92.6" height="92.6"/>
	<text transform="matrix(1 0 0 1 406.8171 516.4766)" class="st10 st11">Monitors food </text>
	<text transform="matrix(1 0 0 1 410.1171 529.6766)" class="st10 st11">and prepares </text>
	<text transform="matrix(1 0 0 1 403.5471 542.8766)" class="st10 st11">to stop button </text>
	<text transform="matrix(1 0 0 1 416.7471 556.0767)" class="st10 st11">in case of </text>
	<text transform="matrix(1 0 0 1 413.3871 569.2766)" class="st10 st11">splattering</text>
	<rect x="423.7" y="379" class="st4" width="92.5" height="92.5"/>
	<text transform="matrix(1 0 0 1 440.3047 409.8158)" class="st10 st11">Slams the </text>
	<text transform="matrix(1 0 0 1 440.2747 423.0158)" class="st10 st11">microwave </text>
	<text transform="matrix(1 0 0 1 446.9047 436.2158)" class="st10 st11">door in </text>
	<text transform="matrix(1 0 0 1 433.6747 449.4158)" class="st10 st11">frustration</text>
</g>
</svg>
