<?xml version="1.0" encoding="utf-8"?>
<!-- Generator: Adobe Illustrator 24.3.0, SVG Export Plug-In . SVG Version: 6.00 Build 0)  -->
<svg version="1.1" xmlns="http://www.w3.org/2000/svg" xmlns:xlink="http://www.w3.org/1999/xlink" x="0px" y="0px"
	 viewBox="0 0 482.32 223.37" style="enable-background:new 0 0 482.32 223.37;" xml:space="preserve">
<style type="text/css">
	.st0{fill:url(#SVGID_1_);stroke:#231F20;stroke-miterlimit:10;}
	.st1{fill:#FFFFFF;stroke:#231F20;stroke-miterlimit:10;}
	.st2{fill:#323232;}
	.st3{fill:#231F20;stroke:#231F20;stroke-miterlimit:10;}
	.st4{fill:#414042;}
	.st5{fill:url(#SVGID_2_);stroke:#231F20;stroke-miterlimit:10;}
	.st6{fill:#7B7979;stroke:#231F20;stroke-miterlimit:10;}
	.st7{stroke:#231F20;stroke-miterlimit:10;}
	.st8{fill:#939598;}
	.st9{fill:none;}
	.st10{fill:#FFFFFF;}
	.st11{font-family:'MyriadPro-Regular';}
	.st12{font-size:8px;}
	.st13{fill:#00B40F;}
	.st14{font-size:20px;}
	.st15{fill:#27AAE1;}
	.st16{fill:none;stroke:#00AEEF;stroke-miterlimit:10;}
	.st17{fill:#00AEEF;}
	.st18{font-size:10px;}
</style>
<g id="body">
	<linearGradient id="SVGID_1_" gradientUnits="userSpaceOnUse" x1="4.9843" y1="108.5738" x2="339.6782" y2="108.5738">
		<stop  offset="0" style="stop-color:#FFFFFF"/>
		<stop  offset="1" style="stop-color:#000000"/>
	</linearGradient>
	<path class="st0" d="M323.35,211.63H21.32c-9.02,0-16.33-7.31-16.33-16.33V21.85c0-9.02,7.31-16.33,16.33-16.33h302.03
		c9.02,0,16.33,7.31,16.33,16.33V195.3C339.68,204.32,332.37,211.63,323.35,211.63z"/>
	<path class="st1" d="M31.45,14.7H241.3v187.76H31.41c-9.05,0-16.38-7.34-16.38-16.38V31.12C15.03,22.05,22.38,14.7,31.45,14.7z"/>
	<path class="st2" d="M200.64,163.07H55.69c-7.44,0-13.46-6.03-13.46-13.46V59.08c0-7.44,6.03-13.46,13.46-13.46h144.94
		c7.44,0,13.46,6.03,13.46,13.46v90.52C214.1,157.04,208.07,163.07,200.64,163.07z"/>
	<rect x="64.82" y="211.63" class="st3" width="32.41" height="7.1"/>
	<rect x="236.74" y="211.63" class="st3" width="32.41" height="7.1"/>
</g>
<g id="keypad">
	<path class="st1" d="M313.05,202.45h-60.1V14.7h60.15c9.05,0,16.38,7.34,16.38,16.38v154.94
		C329.47,195.1,322.12,202.45,313.05,202.45z"/>
	<path class="st4" d="M272.86,92.04h-8.4c-2.63,0-4.75-2.13-4.75-4.75v-3.05c0-2.63,2.13-4.75,4.75-4.75h8.4
		c2.63,0,4.75,2.13,4.75,4.75v3.05C277.61,89.91,275.49,92.04,272.86,92.04z"/>
	<path class="st4" d="M295.65,92.04h-8.4c-2.63,0-4.75-2.13-4.75-4.75v-3.05c0-2.63,2.13-4.75,4.75-4.75h8.4
		c2.63,0,4.75,2.13,4.75,4.75v3.05C300.41,89.91,298.28,92.04,295.65,92.04z"/>
	<path class="st4" d="M318.45,92.04h-8.4c-2.63,0-4.75-2.13-4.75-4.75v-3.05c0-2.63,2.13-4.75,4.75-4.75h8.4
		c2.63,0,4.75,2.13,4.75,4.75v3.05C323.2,89.91,321.08,92.04,318.45,92.04z"/>
	<linearGradient id="SVGID_2_" gradientUnits="userSpaceOnUse" x1="276.8993" y1="181.3082" x2="353.9211" y2="181.3082">
		<stop  offset="0" style="stop-color:#FFFFFF"/>
		<stop  offset="1" style="stop-color:#000000"/>
	</linearGradient>
	<path class="st5" d="M314.81,202.45h-61.87c0-10.81,0-21.62,0-32.43c8.52,2.11,33.2,7.25,58.61-1.27
		c7.44-2.49,13.36-5.63,17.92-8.58c1.11,1.7,0,15.03,0,31.29C329.47,197.53,322.91,202.45,314.81,202.45z"/>
	<path class="st1" d="M363.82,199.58"/>
	<ellipse class="st6" cx="291.21" cy="187.47" rx="10.18" ry="7.62"/>
	<path class="st7" d="M323.2,58.23h-63.5V22.07h47.27c8.96,0,16.23,7.27,16.23,16.23V58.23z"/>
	<path class="st4" d="M272.86,76.77h-8.4c-2.63,0-4.75-2.13-4.75-4.75v-3.05c0-2.63,2.13-4.75,4.75-4.75h8.4
		c2.63,0,4.75,2.13,4.75,4.75v3.05C277.61,74.64,275.49,76.77,272.86,76.77z"/>
	<path class="st4" d="M295.65,76.77h-8.4c-2.63,0-4.75-2.13-4.75-4.75v-3.05c0-2.63,2.13-4.75,4.75-4.75h8.4
		c2.63,0,4.75,2.13,4.75,4.75v3.05C300.41,74.64,298.28,76.77,295.65,76.77z"/>
	<path class="st4" d="M318.45,76.77h-8.4c-2.63,0-4.75-2.13-4.75-4.75v-3.05c0-2.63,2.13-4.75,4.75-4.75h8.4
		c2.63,0,4.75,2.13,4.75,4.75v3.05C323.2,74.64,321.08,76.77,318.45,76.77z"/>
	<circle class="st8" cx="273.84" cy="106.79" r="5.98"/>
	<circle class="st8" cx="310.4" cy="106.79" r="5.98"/>
	<circle class="st8" cx="292.12" cy="106.79" r="5.98"/>
	<circle class="st8" cx="273.84" cy="122" r="5.98"/>
	<circle class="st8" cx="310.4" cy="122" r="5.98"/>
	<circle class="st8" cx="292.12" cy="122" r="5.98"/>
	<circle class="st8" cx="273.84" cy="137.87" r="5.98"/>
	<circle class="st8" cx="310.4" cy="137.87" r="5.98"/>
	<circle class="st8" cx="292.12" cy="137.87" r="5.98"/>
	<circle class="st8" cx="292.12" cy="153.92" r="5.98"/>
	<path class="st4" d="M276.82,160.2h-8.4c-2.63,0-4.75-2.13-4.75-4.75v-3.05c0-2.63,2.13-4.75,4.75-4.75h8.4
		c2.63,0,4.75,2.13,4.75,4.75v3.05C281.57,158.07,279.44,160.2,276.82,160.2z"/>
	<path class="st4" d="M316.39,160.2h-8.4c-2.63,0-4.75-2.13-4.75-4.75v-3.05c0-2.63,2.13-4.75,4.75-4.75h8.4
		c2.63,0,4.75,2.13,4.75,4.75v3.05C321.15,158.07,319.02,160.2,316.39,160.2z"/>
</g>
<g id="keypad_text">
	<rect x="263.66" y="150.27" class="st9" width="17.91" height="7.3"/>
	<text transform="matrix(1 0 0 1 265.2352 155.9494)" class="st10 st11 st12">stop</text>
	<rect x="268.46" y="101.51" class="st9" width="10.75" height="10.57"/>
	<text transform="matrix(1 0 0 1 271.7835 109.6318)" class="st11 st12">1</text>
	<rect x="264.73" y="27.7" class="st9" width="51.66" height="24.89"/>
	<text transform="matrix(1 0 0 1 273.0966 47.2496)" class="st13 st11 st14">8:00</text>
	<rect x="286.74" y="101.51" class="st9" width="10.75" height="10.57"/>
	<text transform="matrix(1 0 0 1 290.0677 109.6318)" class="st11 st12">2</text>
	<rect x="305.03" y="101.51" class="st9" width="10.75" height="10.57"/>
	<text transform="matrix(1 0 0 1 308.3518 109.6318)" class="st11 st12">3</text>
	<rect x="268.46" y="117.05" class="st9" width="10.75" height="10.57"/>
	<text transform="matrix(1 0 0 1 271.7835 125.1692)" class="st11 st12">4</text>
	<rect x="286.74" y="116.72" class="st9" width="10.75" height="10.57"/>
	<text transform="matrix(1 0 0 1 290.0677 124.8442)" class="st11 st12">5</text>
	<rect x="305.03" y="116.72" class="st9" width="10.75" height="10.57"/>
	<text transform="matrix(1 0 0 1 308.3518 124.8442)" class="st11 st12">6</text>
	<rect x="268.46" y="132.58" class="st9" width="10.75" height="10.57"/>
	<text transform="matrix(1 0 0 1 271.7835 140.7066)" class="st11 st12">7</text>
	<rect x="286.74" y="132.58" class="st9" width="10.75" height="10.57"/>
	<text transform="matrix(1 0 0 1 290.0677 140.7066)" class="st11 st12">8</text>
	<rect x="305.03" y="132.58" class="st9" width="10.75" height="10.57"/>
	<text transform="matrix(1 0 0 1 308.3518 140.7066)" class="st11 st12">9</text>
	<rect x="286.74" y="148.63" class="st9" width="10.75" height="10.57"/>
	<text transform="matrix(1 0 0 1 290.0677 156.757)" class="st11 st12">0</text>
	<rect x="303.24" y="150.27" class="st9" width="17.91" height="7.3"/>
	<text transform="matrix(1 0 0 1 304.7234 155.9494)" class="st10 st11 st12">start</text>
</g>
<g id="annotations">
	<g>
		<line class="st15" x1="374.94" y1="40.15" x2="300.25" y2="81.01"/>
		<g>
			<line class="st16" x1="374.94" y1="40.15" x2="303.8" y2="79.07"/>
			<g>
				<g>
					<path class="st10" d="M302.18,75.67c-1.82,1-2.49,3.28-1.49,5.1s3.28,2.49,5.1,1.49c1.82-1,2.49-3.28,1.49-5.1
						S304,74.67,302.18,75.67z"/>
					<path class="st17" d="M301.94,75.23c2.06-1.13,4.65-0.37,5.78,1.69c1.13,2.06,0.37,4.65-1.69,5.78
						c-2.06,1.13-4.65,0.37-5.78-1.69C299.12,78.95,299.88,76.35,301.94,75.23C304,74.1,299.88,76.35,301.94,75.23z M305.55,81.82
						c1.58-0.86,2.16-2.85,1.3-4.42s-2.85-2.16-4.42-1.3c-1.58,0.86-2.16,2.85-1.3,4.42S303.97,82.69,305.55,81.82
						C307.13,80.96,303.97,82.69,305.55,81.82z"/>
				</g>
			</g>
		</g>
	</g>
	<rect x="385.98" y="10.7" class="st9" width="91.35" height="46.66"/>
	<text transform="matrix(1 0 0 1 393.2266 19.58)"><tspan x="0" y="0" class="st11 st18">buttons to change </tspan><tspan x="0.04" y="12" class="st11 st18">the heat setting to </tspan><tspan x="8.28" y="24" class="st11 st18">defrost, frozen </tspan><tspan x="-4.7" y="36" class="st11 st18">dinner, popcorn, etc.</tspan></text>
	<g>
		<line class="st15" x1="297.9" y1="132.94" x2="374.94" y2="106.79"/>
		<g>
			<line class="st16" x1="301.73" y1="131.64" x2="374.94" y2="106.79"/>
			<g>
				<g>
					<path class="st10" d="M303.14,135.13c-1.97,0.67-4.1-0.39-4.77-2.35c-0.67-1.97,0.39-4.1,2.35-4.77
						c1.97-0.67,4.1,0.39,4.77,2.35S305.1,134.46,303.14,135.13z"/>
					<path class="st17" d="M303.3,135.61c2.22-0.75,3.42-3.18,2.66-5.4c-0.75-2.22-3.18-3.42-5.4-2.66
						c-2.22,0.75-3.42,3.18-2.66,5.4C298.65,135.16,301.07,136.36,303.3,135.61C305.52,134.85,301.07,136.36,303.3,135.61z
						 M300.88,128.48c1.7-0.58,3.56,0.34,4.13,2.04c0.58,1.7-0.34,3.56-2.04,4.13c-1.7,0.58-3.56-0.34-4.13-2.04
						C298.26,130.92,299.18,129.06,300.88,128.48C302.58,127.91,299.18,129.06,300.88,128.48z"/>
				</g>
			</g>
		</g>
	</g>
	<rect x="385.98" y="83.46" class="st9" width="91.35" height="46.66"/>
	<text transform="matrix(1 0 0 1 391.252 92.342)"><tspan x="0" y="0" class="st11 st18">keypad to set, start, </tspan><tspan x="-3.34" y="12" class="st11 st18">and stop the time for </tspan><tspan x="3.91" y="24" class="st11 st18">which to heat the </tspan><tspan x="30.63" y="36" class="st11 st18">food</tspan></text>
	<g>
		<line class="st15" x1="309.76" y1="188.62" x2="374.94" y2="176.72"/>
		<g>
			<line class="st16" x1="313.74" y1="187.9" x2="374.94" y2="176.72"/>
			<g>
				<g>
					<path class="st10" d="M314.62,191.56c-2.04,0.37-4-0.98-4.37-3.02s0.98-4,3.02-4.37c2.04-0.37,4,0.98,4.37,3.02
						C318.02,189.23,316.66,191.18,314.62,191.56z"/>
					<path class="st17" d="M314.71,192.05c2.31-0.42,3.85-2.65,3.43-4.96c-0.42-2.31-2.65-3.85-4.96-3.43
						c-2.31,0.42-3.85,2.65-3.43,4.96C310.18,190.93,312.4,192.47,314.71,192.05C317.02,191.63,312.4,192.47,314.71,192.05z
						 M313.36,184.65c1.77-0.32,3.47,0.85,3.79,2.62c0.32,1.77-0.85,3.47-2.62,3.79c-1.77,0.32-3.47-0.85-3.79-2.62
						C310.42,186.68,311.59,184.98,313.36,184.65C315.13,184.33,311.59,184.98,313.36,184.65z"/>
				</g>
			</g>
		</g>
	</g>
	<rect x="385.98" y="152.52" class="st9" width="89.18" height="57.57"/>
	<text transform="matrix(1 0 0 1 389.6036 160.8581)"><tspan x="0" y="0" class="st11 st18">door that is opened </tspan><tspan x="2.49" y="12" class="st11 st18">only by pushing in </tspan><tspan x="8.33" y="24" class="st11 st18">this rectangular </tspan><tspan x="12.72" y="36" class="st11 st18">button with a </tspan><tspan x="7.46" y="48" class="st11 st18">spherical indent</tspan></text>
	<g>
		<line class="st15" x1="188.75" y1="187.35" x2="309.76" y2="187.35"/>
		<g>
			<line class="st16" x1="192.79" y1="187.35" x2="309.76" y2="187.35"/>
			<g>
				<g>
					<path class="st10" d="M193.01,191.11c-2.08,0-3.76-1.68-3.76-3.76c0-2.08,1.68-3.76,3.76-3.76c2.08,0,3.76,1.68,3.76,3.76
						S195.08,191.11,193.01,191.11z"/>
					<path class="st17" d="M193.01,191.61c2.35,0,4.26-1.91,4.26-4.26c0-2.35-1.91-4.26-4.26-4.26c-2.35,0-4.26,1.91-4.26,4.26
						C188.75,189.7,190.66,191.61,193.01,191.61C195.36,191.61,190.66,191.61,193.01,191.61z M193.01,184.09
						c1.8,0,3.26,1.46,3.26,3.26s-1.46,3.26-3.26,3.26c-1.8,0-3.26-1.46-3.26-3.26C189.75,185.55,191.21,184.09,193.01,184.09
						C194.8,184.09,191.21,184.09,193.01,184.09z"/>
				</g>
			</g>
		</g>
	</g>
</g>
</svg>
